<svg width="512" height="512" xmlns="http://www.w3.org/2000/svg" class="svg-inline--fa fa-tag fa-w-16">

 <g>
  <title>background</title>
  <rect fill="none" id="canvas_background" height="602" width="802" y="-1" x="-1"/>
 </g>
 <g>
  <title>Layer 1</title>
  <path id="svg_1" d="m0,252.118l0,-204.118c0,-26.51 21.49,-48 48,-48l204.118,0a48,48 0 0 1 33.941,14.059l211.882,211.882c18.745,18.745 18.745,49.137 0,67.882l-204.118,204.118c-18.745,18.745 -49.137,18.745 -67.882,0l-211.882,-211.882a48,48 0 0 1 -14.059,-33.941zm112,-188.118c-26.51,0 -48,21.49 -48,48s21.49,48 48,48s48,-21.49 48,-48s-21.49,-48 -48,-48z" fill="#ffffff"/>
 </g>
</svg>